# xmcd
#
# Track frame offsets: 
#        150
#        17430
#        31479
#        52547
#        68663
#        87864
#        102955
#        119886
#        137161
#        151152
#        172539
#
# Disc length: 2570 seconds
#
# Revision: 8
# Processed by: cddbd v1.5.2PL0 Copyright (c) Steve Scherf et al.
# Submitted via: ExactAudioCopyFreeDBPlugin 1.0
#
DISCID=7b0a080b
DTITLE=Lady Antebellum - Lady Antebellum
DYEAR=2008
DGENRE=Country
TTITLE0=Love Don't Live Here
TTITLE1=Lookin' for a Good Time
TTITLE2=All We'd Ever Need
TTITLE3=Long Gone
TTITLE4=I Run to You
TTITLE5=Love's Lookin' Good on You
TTITLE6=Home Is Where the Heart Is
TTITLE7=Things People Say
TTITLE8=Slow Down Sister
TTITLE9=Can't Take My Eyes Off You
TTITLE10=One Day You Will
EXTD=
EXTT0=
EXTT1=
EXTT2=
EXTT3=
EXTT4=
EXTT5=
EXTT6=
EXTT7=
EXTT8=
EXTT9=
EXTT10=
PLAYORDER=
